<svg width="100%" viewBox="0 0 680 560" xmlns="http://www.w3.org/2000/svg" font-family="Inter, system-ui, -apple-system, BlinkMacSystemFont, 'Segoe UI', sans-serif">
<defs>
  <marker id="arr" viewBox="0 0 10 10" refX="8" refY="5" markerWidth="5" markerHeight="5" orient="auto-start-reverse">
    <path d="M2 1L8 5L2 9" fill="none" stroke="context-stroke" stroke-width="1.5" stroke-linecap="round" stroke-linejoin="round"/>
  </marker>
  <linearGradient id="bg" x1="0" y1="0" x2="0" y2="1">
    <stop offset="0%" stop-color="#0d1117"/>
    <stop offset="100%" stop-color="#141920"/>
  </linearGradient>
  <linearGradient id="gp" x1="0" y1="0" x2="1" y2="0">
    <stop offset="0%" stop-color="#534AB7" stop-opacity="0"/>
    <stop offset="50%" stop-color="#534AB7" stop-opacity="0.6"/>
    <stop offset="100%" stop-color="#534AB7" stop-opacity="0"/>
  </linearGradient>
  <linearGradient id="gt" x1="0" y1="0" x2="1" y2="0">
    <stop offset="0%" stop-color="#0F6E56" stop-opacity="0"/>
    <stop offset="50%" stop-color="#1D9E75" stop-opacity="0.5"/>
    <stop offset="100%" stop-color="#0F6E56" stop-opacity="0"/>
  </linearGradient>
  <linearGradient id="ga" x1="0" y1="0" x2="1" y2="0">
    <stop offset="0%" stop-color="#854F0B" stop-opacity="0"/>
    <stop offset="50%" stop-color="#EF9F27" stop-opacity="0.5"/>
    <stop offset="100%" stop-color="#854F0B" stop-opacity="0"/>
  </linearGradient>
</defs>
<rect width="680" height="560" fill="url(#bg)" rx="12"/>
<g stroke="rgba(255,255,255,0.03)" stroke-width="1">
  <line x1="0" y1="130" x2="680" y2="130"/>
  <line x1="0" y1="320" x2="680" y2="320"/>
  <line x1="170" y1="0" x2="170" y2="320"/>
  <line x1="510" y1="0" x2="510" y2="320"/>
</g>
<text x="340" y="30" text-anchor="middle" font-size="10" fill="rgba(255,255,255,0.3)" letter-spacing="3">SENSE · KNOW · ACT</text>
<text x="85" y="58" text-anchor="middle" font-size="10" fill="#AFA9EC" letter-spacing="2">SENSE</text>
<text x="85" y="75" text-anchor="middle" font-size="13" font-weight="600" fill="#CECBF6">Infrastructure Scout</text>
<rect x="20" y="108" width="130" height="40" rx="6" fill="rgba(83,74,183,0.12)" stroke="#534AB7" stroke-width="0.5"/>
<text x="85" y="124" text-anchor="middle" font-size="11" font-weight="500" fill="#CECBF6">Git repo</text>
<text x="85" y="139" text-anchor="middle" font-size="10" fill="rgba(175,169,236,0.55)">code &amp; infra</text>
<rect x="20" y="157" width="130" height="40" rx="6" fill="rgba(83,74,183,0.12)" stroke="#534AB7" stroke-width="0.5"/>
<text x="85" y="173" text-anchor="middle" font-size="11" font-weight="500" fill="#CECBF6">Live URL</text>
<text x="85" y="188" text-anchor="middle" font-size="10" fill="rgba(175,169,236,0.55)">website scan · trackers</text>
<rect x="20" y="206" width="130" height="40" rx="6" fill="rgba(83,74,183,0.12)" stroke="#534AB7" stroke-width="0.5"/>
<text x="85" y="222" text-anchor="middle" font-size="11" font-weight="500" fill="#CECBF6">Legal news</text>
<text x="85" y="237" text-anchor="middle" font-size="10" fill="rgba(175,169,236,0.55)">EUR-Lex · BfDI · BSI</text>
<rect x="28" y="258" width="114" height="22" rx="11" fill="rgba(83,74,183,0.2)" stroke="#534AB7" stroke-width="0.5"/>
<text x="85" y="273" text-anchor="middle" font-size="10" fill="#AFA9EC">UUIDs only →</text>
<rect x="20" y="99" width="130" height="2" fill="url(#gp)" rx="1"/>
<text x="340" y="58" text-anchor="middle" font-size="10" fill="#5DCAA5" letter-spacing="2">KNOW</text>
<text x="340" y="75" text-anchor="middle" font-size="13" font-weight="600" fill="#9FE1CB">Context Graph</text>
<rect x="225" y="99" width="230" height="192" rx="10" fill="rgba(15,110,86,0.08)" stroke="rgba(29,158,117,0.35)" stroke-width="0.5"/>
<circle cx="340" cy="200" r="14" fill="rgba(29,158,117,0.22)" stroke="#1D9E75" stroke-width="1"/>
<text x="340" y="205" text-anchor="middle" font-size="9" font-weight="600" fill="#5DCAA5">Neo4j</text>
<circle cx="288" cy="158" r="10" fill="rgba(29,158,117,0.15)" stroke="#1D9E75" stroke-width="0.5"/>
<text x="288" y="162" text-anchor="middle" font-size="8" fill="#5DCAA5">GDPR</text>
<circle cx="392" cy="158" r="10" fill="rgba(29,158,117,0.15)" stroke="#1D9E75" stroke-width="0.5"/>
<text x="392" y="162" text-anchor="middle" font-size="8" fill="#5DCAA5">CRA</text>
<circle cx="262" cy="205" r="10" fill="rgba(29,158,117,0.15)" stroke="#1D9E75" stroke-width="0.5"/>
<text x="262" y="209" text-anchor="middle" font-size="8" fill="#5DCAA5">ISO</text>
<circle cx="418" cy="205" r="10" fill="rgba(29,158,117,0.15)" stroke="#1D9E75" stroke-width="0.5"/>
<text x="418" y="209" text-anchor="middle" font-size="8" fill="#5DCAA5">NIS2</text>
<circle cx="295" cy="248" r="10" fill="rgba(29,158,117,0.15)" stroke="#1D9E75" stroke-width="0.5"/>
<text x="295" y="252" text-anchor="middle" font-size="8" fill="#5DCAA5">AI Act</text>
<circle cx="385" cy="248" r="10" fill="rgba(29,158,117,0.15)" stroke="#1D9E75" stroke-width="0.5"/>
<text x="385" y="252" text-anchor="middle" font-size="8" fill="#5DCAA5">BSI</text>
<line x1="329" y1="190" x2="296" y2="166" stroke="rgba(29,158,117,0.4)" stroke-width="0.8"/>
<line x1="351" y1="190" x2="384" y2="166" stroke="rgba(29,158,117,0.4)" stroke-width="0.8"/>
<line x1="326" y1="200" x2="272" y2="203" stroke="rgba(29,158,117,0.4)" stroke-width="0.8"/>
<line x1="354" y1="200" x2="408" y2="203" stroke="rgba(29,158,117,0.4)" stroke-width="0.8"/>
<line x1="330" y1="212" x2="302" y2="240" stroke="rgba(29,158,117,0.4)" stroke-width="0.8"/>
<line x1="350" y1="212" x2="378" y2="240" stroke="rgba(29,158,117,0.4)" stroke-width="0.8"/>
<text x="340" y="286" text-anchor="middle" font-size="9.5" fill="rgba(93,202,165,0.45)">510 nodes · 936 relationships</text>
<rect x="225" y="99" width="230" height="2" fill="url(#gt)" rx="1"/>
<text x="595" y="58" text-anchor="middle" font-size="10" fill="#EF9F27" letter-spacing="2">ACT</text>
<text x="595" y="75" text-anchor="middle" font-size="13" font-weight="600" fill="#FAC775">Document Architect</text>
<rect x="536" y="122" width="118" height="38" rx="6" fill="rgba(133,79,11,0.12)" stroke="rgba(239,159,39,0.32)" stroke-width="0.5" transform="rotate(-3,595,141)"/>
<rect x="533" y="126" width="118" height="38" rx="6" fill="rgba(133,79,11,0.15)" stroke="rgba(239,159,39,0.42)" stroke-width="0.5" transform="rotate(-1,592,145)"/>
<rect x="530" y="130" width="118" height="38" rx="6" fill="rgba(133,79,11,0.2)" stroke="#EF9F27" stroke-width="0.8"/>
<text x="589" y="140" text-anchor="middle" font-size="11" font-weight="500" fill="#FAC775" letter-spacing="0.01em">ToM</text>
<text x="589" y="153" text-anchor="middle" font-size="8" font-weight="500" fill="rgba(250,199,117,0.66)" letter-spacing="0.02em">Technical Measures</text>
<text x="589" y="164" text-anchor="middle" font-size="7" font-weight="400" fill="rgba(250,199,117,0.5)" font-family="ui-monospace, SFMono-Regular, Menlo, Monaco, Consolas, monospace" letter-spacing="0.04em">tom.md</text>
<rect x="530" y="178" width="118" height="38" rx="6" fill="rgba(133,79,11,0.2)" stroke="#EF9F27" stroke-width="0.8"/>
<text x="589" y="196" text-anchor="middle" font-size="11" font-weight="500" fill="#FAC775">DPA</text>
<text x="589" y="210" text-anchor="middle" font-size="9" fill="rgba(250,199,117,0.5)">stripe.com/de/legal/dpa →</text>
<rect x="530" y="226" width="118" height="38" rx="6" fill="rgba(133,79,11,0.15)" stroke="rgba(239,159,39,0.4)" stroke-width="0.5"/>
<text x="589" y="248" text-anchor="middle" font-size="10.5" font-weight="500" fill="#FAC775">AI Act Manifest</text>
<rect x="530" y="274" width="118" height="22" rx="6" fill="rgba(133,79,11,0.08)" stroke="rgba(239,159,39,0.2)" stroke-width="0.5"/>
<text x="589" y="289" text-anchor="middle" font-size="9" fill="rgba(250,199,117,0.45)">deployer risk · Art. 50</text>
<rect x="530" y="99" width="118" height="2" fill="url(#ga)" rx="1"/>
<path d="M152 128 C190 128 200 175 225 180" stroke="rgba(83,74,183,0.45)" stroke-width="1" fill="none" marker-end="url(#arr)"/>
<path d="M152 177 L225 195" stroke="rgba(83,74,183,0.45)" stroke-width="1" fill="none" marker-end="url(#arr)"/>
<path d="M152 226 C190 226 200 220 225 215" stroke="rgba(83,74,183,0.45)" stroke-width="1" fill="none" marker-end="url(#arr)"/>
<path d="M455 175 L528 195" stroke="rgba(29,158,117,0.45)" stroke-width="1" fill="none" marker-end="url(#arr)"/>
<path d="M455 200 L528 210" stroke="rgba(29,158,117,0.45)" stroke-width="1" fill="none" marker-end="url(#arr)"/>
<path d="M455 225 L528 235" stroke="rgba(29,158,117,0.45)" stroke-width="1" fill="none" marker-end="url(#arr)"/>
<rect x="20" y="318" width="640" height="1" fill="rgba(255,255,255,0.06)"/>
<rect x="20" y="332" width="148" height="88" rx="8" fill="rgba(29,158,117,0.07)" stroke="rgba(29,158,117,0.3)" stroke-width="0.5"/>
<rect x="34" y="344" width="22" height="22" rx="3" fill="none" stroke="#1D9E75" stroke-width="1"/>
<rect x="39" y="349" width="12" height="12" rx="1" fill="rgba(29,158,117,0.3)" stroke="#1D9E75" stroke-width="0.5"/>
<line x1="36" y1="342" x2="36" y2="344" stroke="#1D9E75" stroke-width="1"/>
<line x1="41" y1="342" x2="41" y2="344" stroke="#1D9E75" stroke-width="1"/>
<line x1="46" y1="342" x2="46" y2="344" stroke="#1D9E75" stroke-width="1"/>
<line x1="51" y1="342" x2="51" y2="344" stroke="#1D9E75" stroke-width="1"/>
<line x1="34" y1="356" x2="32" y2="356" stroke="#1D9E75" stroke-width="1"/>
<line x1="34" y1="361" x2="32" y2="361" stroke="#1D9E75" stroke-width="1"/>
<text x="62" y="355" font-size="11" font-weight="600" fill="#9FE1CB">Local hardware</text>
<text x="34" y="384" font-size="10.5" fill="rgba(93,202,165,0.8)">Runs locally on your</text>
<text x="34" y="399" font-size="10.5" fill="rgba(93,202,165,0.8)">machine or VPS.</text>
<text x="34" y="414" font-size="10.5" fill="rgba(93,202,165,0.8)">Fully local or hybrid.</text>
<rect x="178" y="332" width="148" height="88" rx="8" fill="rgba(83,74,183,0.07)" stroke="rgba(83,74,183,0.3)" stroke-width="0.5"/>
<circle cx="196" cy="353" r="4" fill="none" stroke="#534AB7" stroke-width="1"/>
<circle cx="208" cy="346" r="4" fill="none" stroke="#534AB7" stroke-width="1"/>
<circle cx="208" cy="360" r="4" fill="none" stroke="#534AB7" stroke-width="1"/>
<line x1="200" y1="351" x2="204" y2="348" stroke="#534AB7" stroke-width="0.8"/>
<line x1="200" y1="355" x2="204" y2="358" stroke="#534AB7" stroke-width="0.8"/>
<text x="220" y="355" font-size="11" font-weight="600" fill="#CECBF6">Deterministic</text>
<text x="192" y="384" font-size="10.5" fill="rgba(175,169,236,0.8)">Graph logic, not LLM</text>
<text x="192" y="399" font-size="10.5" fill="rgba(175,169,236,0.8)">guessing. Every finding</text>
<text x="192" y="414" font-size="10.5" fill="rgba(175,169,236,0.8)">traceable to a graph node.</text>
<rect x="336" y="332" width="148" height="88" rx="8" fill="rgba(83,74,183,0.05)" stroke="rgba(83,74,183,0.2)" stroke-width="0.5"/>
<rect x="350" y="349" width="14" height="11" rx="2" fill="none" stroke="#AFA9EC" stroke-width="1"/>
<path d="M353 349 Q353 344 357 344 Q361 344 361 349" fill="none" stroke="#AFA9EC" stroke-width="1"/>
<circle cx="357" cy="354" r="1.5" fill="#AFA9EC"/>
<text x="372" y="357" font-size="11" font-weight="600" fill="#CECBF6">Sovereign</text>
<text x="350" y="384" font-size="10.5" fill="rgba(175,169,236,0.8)">Source code never leaves</text>
<text x="350" y="399" font-size="10.5" fill="rgba(175,169,236,0.8)">your network. Cloud gets</text>
<text x="350" y="414" font-size="10.5" fill="rgba(175,169,236,0.8)">anonymised UUIDs only.</text>
<rect x="494" y="332" width="166" height="88" rx="8" fill="rgba(133,79,11,0.08)" stroke="rgba(239,159,39,0.3)" stroke-width="0.5"/>
<circle cx="512" cy="353" r="7" fill="none" stroke="#EF9F27" stroke-width="1"/>
<line x1="512" y1="349" x2="512" y2="353" stroke="#EF9F27" stroke-width="1"/>
<line x1="512" y1="353" x2="516" y2="356" stroke="#EF9F27" stroke-width="1"/>
<text x="526" y="357" font-size="11" font-weight="600" fill="#FAC775">CRA deadline</text>
<text x="508" y="384" font-size="10.5" fill="rgba(250,199,117,0.85)">11 Sep 2026. Up to €15M</text>
<text x="508" y="399" font-size="10.5" fill="rgba(250,199,117,0.85)">penalty. CRA Art. 14</text>
<text x="508" y="414" font-size="10.5" fill="rgba(250,199,117,0.85)">checked automatically.</text>
<rect x="20" y="434" width="640" height="1" fill="rgba(255,255,255,0.05)"/>
<rect x="20" y="450" width="640" height="48" rx="8" fill="rgba(255,255,255,0.02)" stroke="rgba(255,255,255,0.05)" stroke-width="0.5"/>
<circle cx="50" cy="474" r="10" fill="rgba(83,74,183,0.2)" stroke="#534AB7" stroke-width="0.5"/>
<text x="50" y="478" text-anchor="middle" font-size="9" fill="#AFA9EC">↗</text>
<text x="70" y="471" font-size="10.5" font-weight="500" fill="rgba(255,255,255,0.6)">"3 DPAs missing. CRA Art. 14 applies. Drafts ready."</text>
<rect x="480" y="460" width="168" height="28" rx="5" fill="rgba(29,158,117,0.12)" stroke="rgba(29,158,117,0.3)" stroke-width="0.5"/>
<text x="564" y="478" text-anchor="middle" font-size="10" fill="#5DCAA5">📎 dpa.md  📎 tom.md  📎 ai-act.md</text>
<text x="340" y="518" text-anchor="middle" font-size="9.5" fill="rgba(255,255,255,0.18)" letter-spacing="2">Neo4j · LangGraph · Presidio · Ollama · AGPL-3</text>
<path d="M20 46 L20 20 L46 20" stroke="rgba(83,74,183,0.3)" stroke-width="1" fill="none"/>
<path d="M660 46 L660 20 L634 20" stroke="rgba(29,158,117,0.3)" stroke-width="1" fill="none"/>
<path d="M20 514 L20 540 L46 540" stroke="rgba(239,159,39,0.3)" stroke-width="1" fill="none"/>
<path d="M660 514 L660 540 L634 540" stroke="rgba(255,255,255,0.08)" stroke-width="1" fill="none"/>
</svg>
