<svg width="100%" viewBox="0 0 680 620" xmlns="http://www.w3.org/2000/svg" font-family="-apple-system, BlinkMacSystemFont, 'Segoe UI', sans-serif">
<defs>
  <marker id="arr" viewBox="0 0 10 10" refX="8" refY="5" markerWidth="5" markerHeight="5" orient="auto-start-reverse">
    <path d="M2 1L8 5L2 9" fill="none" stroke="context-stroke" stroke-width="1.5" stroke-linecap="round" stroke-linejoin="round"/>
  </marker>
</defs>
<rect width="680" height="620" fill="#0d1117" rx="12"/>
<g stroke="rgba(255,255,255,0.025)" stroke-width="1">
  <line x1="0" y1="80" x2="680" y2="80"/>
  <line x1="0" y1="210" x2="680" y2="210"/>
  <line x1="0" y1="340" x2="680" y2="340"/>
  <line x1="0" y1="470" x2="680" y2="470"/>
</g>
<rect x="20" y="20" width="640" height="112" rx="8" fill="rgba(83,74,183,0.07)" stroke="rgba(83,74,183,0.3)" stroke-width="0.5"/>
<rect x="20" y="20" width="4" height="112" rx="2" fill="#534AB7"/>
<text x="38" y="44" font-size="11" font-weight="600" fill="#AFA9EC" letter-spacing="1">LAYER 1</text>
<text x="38" y="62" font-size="13" font-weight="600" fill="#CECBF6">Seed Layer Architecture</text>
<text x="38" y="79" font-size="10" fill="rgba(175,169,236,0.55)">Global frameworks · EU primary law · DE national law · opt-in — each deployed independently</text>
<rect x="38" y="88" width="72" height="20" rx="10" fill="rgba(83,74,183,0.2)" stroke="rgba(83,74,183,0.4)" stroke-width="0.5"/>
<text x="74" y="101" text-anchor="middle" font-size="9" fill="#AFA9EC">00_global</text>
<rect x="118" y="88" width="84" height="20" rx="10" fill="rgba(83,74,183,0.2)" stroke="rgba(83,74,183,0.4)" stroke-width="0.5"/>
<text x="160" y="101" text-anchor="middle" font-size="9" fill="#AFA9EC">10_eu_primary</text>
<rect x="210" y="88" width="54" height="20" rx="10" fill="rgba(83,74,183,0.2)" stroke="rgba(83,74,183,0.4)" stroke-width="0.5"/>
<text x="237" y="101" text-anchor="middle" font-size="9" fill="#AFA9EC">10_de</text>
<rect x="272" y="88" width="52" height="20" rx="10" fill="rgba(83,74,183,0.2)" stroke="rgba(83,74,183,0.4)" stroke-width="0.5"/>
<text x="298" y="101" text-anchor="middle" font-size="9" fill="#AFA9EC">10_us …</text>
<rect x="332" y="88" width="96" height="20" rx="10" fill="rgba(83,74,183,0.2)" stroke="rgba(83,74,183,0.4)" stroke-width="0.5"/>
<text x="380" y="101" text-anchor="middle" font-size="9" fill="#AFA9EC">20_frameworks</text>
<text x="448" y="101" font-size="9" fill="rgba(175,169,236,0.35)">seed_config.yaml controls what loads</text>
<line x1="340" y1="132" x2="340" y2="148" stroke="rgba(255,255,255,0.15)" stroke-width="1" marker-end="url(#arr)"/>
<text x="360" y="144" font-size="9" fill="rgba(255,255,255,0.25)">+ temporal properties</text>
<rect x="20" y="150" width="640" height="112" rx="8" fill="rgba(29,158,117,0.07)" stroke="rgba(29,158,117,0.3)" stroke-width="0.5"/>
<rect x="20" y="150" width="4" height="112" rx="2" fill="#1D9E75"/>
<text x="38" y="174" font-size="11" font-weight="600" fill="#5DCAA5" letter-spacing="1">LAYER 2</text>
<text x="38" y="192" font-size="13" font-weight="600" fill="#9FE1CB">Temporal Graph + Confidence</text>
<text x="38" y="209" font-size="10" fill="rgba(93,202,165,0.55)">All Law nodes: applies_from · valid_from · confidence · jurisdictions · source — verified from official PDFs</text>
<rect x="38" y="218" width="270" height="34" rx="5" fill="rgba(15,110,86,0.2)" stroke="rgba(29,158,117,0.3)" stroke-width="0.5"/>
<text x="48" y="231" font-size="9" fill="rgba(93,202,165,0.8)" font-family="monospace">Law { applies_from: 2026-09-11</text>
<text x="48" y="245" font-size="9" fill="rgba(93,202,165,0.8)" font-family="monospace">      confidence: 1.0, jurisdictions: ["EU"] }</text>
<rect x="320" y="218" width="320" height="34" rx="5" fill="rgba(15,110,86,0.12)" stroke="rgba(29,158,117,0.2)" stroke-width="0.5"/>
<text x="330" y="231" font-size="9" fill="rgba(93,202,165,0.7)">confidence: 1.0 = from official source (PDF/EUR-Lex)</text>
<text x="330" y="245" font-size="9" fill="rgba(93,202,165,0.5)">confidence: 0.9 = unverified · note_unverified set</text>
<line x1="340" y1="262" x2="340" y2="278" stroke="rgba(255,255,255,0.15)" stroke-width="1" marker-end="url(#arr)"/>
<text x="360" y="274" font-size="9" fill="rgba(255,255,255,0.25)">+ scanner + UseCase nodes</text>
<rect x="20" y="280" width="640" height="122" rx="8" fill="rgba(83,74,183,0.07)" stroke="rgba(83,74,183,0.25)" stroke-width="0.5"/>
<rect x="20" y="280" width="4" height="122" rx="2" fill="#7F77DD"/>
<text x="38" y="304" font-size="11" font-weight="600" fill="#AFA9EC" letter-spacing="1">LAYER 3</text>
<text x="38" y="322" font-size="13" font-weight="600" fill="#CECBF6">Context Graph: Scanner + UseCase Nodes</text>
<text x="38" y="339" font-size="10" fill="rgba(175,169,236,0.5)">Scanner personalises the graph per project · UseCase nodes add deployer-perspective risk classification</text>
<rect x="38" y="348" width="290" height="44" rx="5" fill="rgba(83,74,183,0.15)" stroke="rgba(83,74,183,0.3)" stroke-width="0.5"/>
<text x="48" y="364" font-size="10" font-weight="500" fill="#CECBF6">Scanner + ProjectAsset (ADR-001)</text>
<text x="48" y="381" font-size="9" fill="rgba(175,169,236,0.6)">Project.uuid → USES → Stripe → DPA · rescan = delta</text>
<rect x="342" y="348" width="298" height="44" rx="5" fill="rgba(83,74,183,0.12)" stroke="rgba(83,74,183,0.25)" stroke-width="0.5"/>
<text x="352" y="364" font-size="10" font-weight="500" fill="#CECBF6">UseCase nodes — Deployer Risk (ADR-010)</text>
<text x="352" y="381" font-size="9" fill="rgba(175,169,236,0.6)">customer_service_chatbot → Limited (Art. 50)</text>
<line x1="340" y1="402" x2="340" y2="418" stroke="rgba(255,255,255,0.15)" stroke-width="1" marker-end="url(#arr)"/>
<text x="360" y="414" font-size="9" fill="rgba(255,255,255,0.25)">+ NewsEvent + confidence decay</text>
<rect x="20" y="420" width="640" height="112" rx="8" fill="rgba(239,159,39,0.06)" stroke="rgba(239,159,39,0.25)" stroke-width="0.5"/>
<rect x="20" y="420" width="4" height="112" rx="2" fill="#EF9F27"/>
<text x="38" y="444" font-size="11" font-weight="600" fill="#EF9F27" letter-spacing="1">LAYER 4</text>
<text x="38" y="462" font-size="13" font-weight="600" fill="#FAC775">Self-Describing Context Graph</text>
<text x="38" y="479" font-size="10" fill="rgba(250,199,117,0.5)">Graph knows what it does not know · NewsEvents signal regulatory changes · confidence decay marks staleness</text>
<rect x="38" y="488" width="168" height="34" rx="5" fill="rgba(133,79,11,0.2)" stroke="rgba(239,159,39,0.25)" stroke-width="0.5"/>
<text x="48" y="502" font-size="9" fill="rgba(250,199,117,0.8)" font-family="monospace">KnowledgeSource {</text>
<text x="48" y="516" font-size="9" fill="rgba(250,199,117,0.6)" font-family="monospace">  status: "missing" }</text>
<rect x="218" y="488" width="220" height="34" rx="5" fill="rgba(133,79,11,0.2)" stroke="rgba(239,159,39,0.25)" stroke-width="0.5"/>
<text x="228" y="502" font-size="9" fill="rgba(250,199,117,0.8)" font-family="monospace">NewsEvent -[:AMENDS]→ Law</text>
<text x="228" y="516" font-size="9" fill="rgba(250,199,117,0.6)">→ confidence decay 1.0 → 0.7</text>
<rect x="450" y="488" width="200" height="34" rx="5" fill="rgba(133,79,11,0.2)" stroke="rgba(239,159,39,0.3)" stroke-width="0.5"/>
<text x="460" y="502" font-size="9" fill="rgba(250,199,117,0.85)" font-weight="500">Telegram: "EU AI Act changed —</text>
<text x="460" y="516" font-size="9" fill="rgba(250,199,117,0.65)">your docs may be outdated /verify"</text>
<line x1="340" y1="532" x2="340" y2="548" stroke="rgba(255,255,255,0.12)" stroke-width="1" marker-end="url(#arr)"/>
<rect x="160" y="550" width="360" height="40" rx="6" fill="rgba(255,255,255,0.04)" stroke="rgba(255,255,255,0.1)" stroke-width="0.5"/>
<text x="340" y="566" text-anchor="middle" font-size="11" font-weight="600" fill="rgba(255,255,255,0.6)">Self-Learning Orchestrator</text>
<text x="340" y="581" text-anchor="middle" font-size="9" fill="rgba(255,255,255,0.3)">rescan delta → /approve feedback → Preference Node → weighted findings</text>
<path d="M20 38 L20 20 L38 20" stroke="rgba(83,74,183,0.3)" stroke-width="1" fill="none"/>
<path d="M660 38 L660 20 L642 20" stroke="rgba(29,158,117,0.3)" stroke-width="1" fill="none"/>
<path d="M20 582 L20 600 L38 600" stroke="rgba(239,159,39,0.25)" stroke-width="1" fill="none"/>
<path d="M660 582 L660 600 L642 600" stroke="rgba(255,255,255,0.06)" stroke-width="1" fill="none"/>
</svg>
